<?xml version="1.0" encoding="UTF-8"?>
<svg id="Ebene_1" data-name="Ebene 1" xmlns="http://www.w3.org/2000/svg" viewBox="0 0 2700 1952">
  <defs>
    <style>
      .cls-1 {
        fill: #1d1d1b;
      }
    </style>
  </defs>
  <path class="cls-1" d="M1095.31221,1370.70334c18.30272-28.01903,11.32811,1.76314,12.782-35.91543.12669-3.28318,7.15039-3.83537,9.99818-2.18829,14.01968,8.10858,1.0821,14.77005,9.52076,43.68472,1.47712,5.06128-2.72194,9.98258-2.01117,13.58991,1.52339,7.73151,2.5557,15.13804,1.69616,22.52682l-1.38884,11.93875c-1.24758.1306-3.54741-1.45734-4.50094-.63392-14.2562,15.155-14.99002-36.62828-13.65313-43.9351-21.70137,9.61549-31.54599-7.73392-41.48755-24.53369-3.09572-5.23131-6.6412-23.79932-.46776-23.69724-5.22909-4.11982-1.19933-8.86949-.70167-12.74526,3.14522-24.49501,9.60387-52.97862,38.42143-56.97706.60607-.08409,16.07728-3.34967,18.076,1.80052.59363,1.52963-.6134,2.98213-.92303,4.80375-.44153,2.59767-3.08127-.12377-5.15302.88281-6.63074,3.22163-11.99147,8.52032-17.38902,13.72413-7.29144,7.02971-8.68854,17.62119-11.49162,27.44429-.26772.93818-1.82771-.04076-1.261-.88252.29742-.44178,1.03012-1.22439.24571-2.23779-3.28022,2.15529-4.4031,6.88955-4.25549,10.67621,2.14273-1.78415,2.3564-4.05565,3.85865-6.60834,1.77775,5.4309-.89648,10.54459-2.08185,15.95356-.67507,3.08041,1.60356,6.98566-1.38722,9.10069-1.89156-2.50931.48268-4.85379-.51603-7.55784-3.32389,6.49885-1.43642,13.4821-.9598,20.51177l2.70098-6.29935c-.54172,8.9419.40007,17.06142,5.98501,23.18994,1.30442,1.43138,4.36162.6989,6.34426,4.38394Z"/>
  <path class="cls-1" d="M1385.03258,1429.90751c-.67594,1.0456-13.36635,10.0404-14.23786,10.06187-5.37354.13241-10.2777-3.03857-15.29993-3.95327.18501-1.60772,1.73529-2.82991,1.34445-4.05437-1.78488-5.59179-6.68251-6.55384-12.50064-9.90393,4.60916-2.00581,9.0281.24074,13.1696,1.29954,12.25702,3.13356,20.66089-6.74902,22.95666-17.9163.57253-2.78496,8.32407-16.14334,5.44991-20.51054,2.52887,2.23736,2.47723-1.20548,2.9778-2.02131.83043-1.35344-1.35065-2.8837-.98315-4.08768.53572-1.7551,3.17942-2.65331,2.92032-3.94822l-1.22127-6.10372c-2.61385-13.06361,2.59837-15.46949.37649-29.57284-.12321-.78208,1.7196-2.72359,1.38625-3.50658-.32178-.75582-1.72117-1.03392-2.53232-2.41925l-.82058-26.32151c-.37397-11.99579-1.20192-23.99026-.90779-36.2674-8.63898.02695-35.58795-1.63458-32.35654-13.52003.34936-1.28497,3.40625-2.52049,5.04862-1.9784,17.01557,5.61631,28.87764-10.17711,61.19697-3.73322.99435.19826,2.78291-1.60989,3.93853-.89662,1.39525.86118,1.75926,8.62233.93089,9.13028-9.94208,6.09643-17.71105-3.28648-23.98117,4.85007.71073-.92229.08371,22.32717.13858,22.61018,2.56578,13.23217-.80184,14.88019-.671,27.7719,5.34603,1.06049,1.49622,8.37214.91507,12.28135,1.67058.58234,1.44682-1.97945,3.72125-2.35509l-.5248,17.40958-1.60769,3.08651c-1.21376,2.33022,5.24731.20463,2.23611,11.09894-1.26897-1.45667-1.60263-2.48538-1.81888-3.139-.30552-.92345,1.18036-1.81938,1.24944-2.63691.05975-.70711-1.48986-1.13792-1.89376-.79956-2.88016,2.41275,4.48271,9.35623,2.03138,13.05051-9.70177,14.62113,7.4641,1.88806-7.81778,35.48508-.66192,1.45522-3.40168,1.41879-3.6198,2.7452-1.3494,8.20578,6.96204,3.90052-9.17532,22.40436-.17564,1.82955,1.26775,4.3714-.01805,6.36038Z"/>
  <path class="cls-1" d="M1329.1193,1521.22724c-12.54827,8.18826-1.8922-19.8628-1.45233-20.80225,9.26913-19.7966.28145-22.9401,5.63924-31.73836,1.09518-1.79845,4.08635-1.58544,6.20073-.91521,5.29315,1.67788,4.17422,25.05849,5.3032,31.83622,7.88474-.68568,4.95582-50.73219,20.09407-39.29899-8.00198,17.8373-12.20731,38.95301-13.42492,57.48677-.10429,1.58744-3.15064,4.41886-4.32571,4.01329-9.15711-3.16052-6.6198-30.00417-10.40232-38.74124-.75791,6.15368-6.29923,37.29011-7.63197,38.15978ZM1345.89903,1501.04393c0-.22597-.18328-.40915-.40937-.40915s-.40937.18318-.40937.40915.18328.40915.40937.40915.40937-.18318.40937-.40915Z"/>
  <path class="cls-1" d="M1388.13429,1491.93808c7.79368,2.54709-3.95991,19.66832-.03797,36.10612.64471,2.70212-2.46927,8.75847-4.77644,6.87077-4.99773-4.08908-2.76795-12.13107-3.10917-18.04509-3.91181-.24829-6.49695,3.0716-9.85734,1.32689-9.45646-4.90975-11.1727-21.75296-6.05389-32.41116,5.45307-11.35421,6.32893-14.61521,16.22431-26.29005,3.94076,1.63217,7.82471,3.38758,10.16059,7.84439-8.6814,4.03371-12.70224,12.68203-18.44749,18.59941-2.80029,2.88418-3.23139,6.18452-2.08209,10.17506.22973.79767-2.05525,1.66257-2.44307,2.19173,1.04893-1.43122,3.67481,12.67212,4.77604,11.41199,18.12012-2.2265,1.25807-22.48242,15.64652-17.78005Z"/>
  <path class="cls-1" d="M1241.70223,1494.44179c-10.86816,8.68266.16047,20.89952-6.76786,29.89967-5.13287-6.98859-3.53122-15.11516-4.11897-23.16566-2.46023-1.16166-5.55609-.77281-8.38439-.25541-1.97967,5.76036-1.59604,12.34278.19381,17.50695-5.25838,4.36023-1.4066,8.06109-5.82784,10.05771-.8997.4063-3.60863-.83255-3.15949-2.18866,2.7207-8.21485,2.56811-16.20666,3.14718-24.81019.9467-14.06555,4.3677-27.68706,1.86447-42.17237-.30654-1.77385,4.4357-.98482,5.85961-.11289,4.97094,3.04396-.35157,31.95141,1.40851,34.05476,5.77289,6.89879,3.85079-10.99556,7.5655-24.98711.74148-2.79281-.91217-7.80685,2.37059-9.23159,2.13472-.92649,3.88432,1.36006,4.84985,2.6129,3.83304,4.97365-5.08109,19.30006-3.93197,24.30236.58521,2.54754-1.35215,3.64561-.50678,5.03128,1.37277,2.25013,2.49053,2.6357,5.43779,3.45827Z"/>
  <path class="cls-1" d="M1550.79226,1517.95894c-3.64946,1.26704-6.55958,6.27727-11.48466,4.5888-3.32486-14.30679,5.01427-41.67408-1.84422-56.68713,6.52984.47873,15.4992-.80381,20.57319,3.27341,9.90251,10.03099,8.25351,25.79874,4.02944,37.83449-2.16077,6.15673-4.79509,8.74113-11.27375,10.99042ZM1546.1351,1510.49929c5.67728-9.67878,10.33342-5.45648,11.83478-18.38184.974-8.38528-.0793-18.14508-10.44512-20.16667,1.4351,5.09002.38145,29.17793-1.86019,31.56491-.80333,1.4459,1.92073,4.94729.47053,6.98359Z"/>
  <path class="cls-1" d="M1272.22128,1520.02378c-1.89308,1.58208-3.33992-2.0242-4.63641-2.91926-2.14745-1.48254.41298-4.813-.48651-6.65403-5.08811-10.41409-2.80453-20.86328-5.82724-32.2727-.72087,5.5373-1.96042,46.19561-11.38879,42.93828.44153-18.0942,9.81406-28.18448,4.27627-46.15917,1.1545-6.85582,5.0186-13.59215,11.05784-12.12865l5.37539,38.26657c2.55152-3.45332,9.69383-38.83345,7.81411-37.71537,1.07764-.64099,2.21384-1.01174,3.1189-.66884,1.7258.65386,1.10446,2.32069.86591,3.78425l-3.03209,18.60246c-1.23625,7.58462-.95636,29.76088-7.13736,34.92645Z"/>
  <g>
    <path class="cls-1" d="M1479.4157,1499.33626c-4.49904-1.00361-5.25143-6.62034-6.70588-11.09373-1.56373-1.14404-7.20667,37.19764-10.42973,25.82028-2.28647-8.07121,6.91766-23.64095,5.7221-42.25697-.1034-1.60999-2.56069-3.6108-1.24156-5.04253.92154-1.0002,3.86359-1.75185,5.81848-.80773,4.27574,2.06498,5.28918,8.06698,7.33533,12.65463,6.66561-8.38128,5.84754-17.2986,14.29592-16.15752,7.6385,1.0317,1.15018,25.91627,3.98876,46.87342.69208,5.1096-5.26878,7.58337-4.17896,8.50649-.48649-.41208-2.15678-1.70466-2.2131-2.45786l-2.29868-30.74486c-4.66335-.1699-2.8153,16.32975-10.0927,14.70637Z"/>
    <path class="cls-1" d="M1425.83206,1471.63492c2.77206-1.21219,7.83637-.27567,9.20741,2.01068l.6284,34.71662c.03058,1.68941.74061,4.0975,1.87667,4.74994,6.025,3.46012,18.94355-15.5536,13.27473-38.0567-.53885-2.13905.59389-4.21742,1.66108-5.00968,1.54746-1.14881,3.61146-.61818,4.7776.14076,1.82173,1.1856.4046,4.10621.71819,5.48265,3.15745,13.85897-.58769,25.99301-7.96722,38.25419-2.7376,4.54856-7.71351,12.47442-14.65286,9.26743-4.98566-2.3041-6.88315-12.33146-7.20882-18.13339-.62008-11.04698,1.79007-21.38522-2.31518-33.42249Z"/>
  </g>
  <path class="cls-1" d="M1292.8291,1515.86121c-4.81876-17.59065,3.49853-33.75274,1.95613-49.30548,3.36211-1.4173,4.98172.85621,7.18486,2.36676,3.81369,2.6148-10.69843,36.84411-2.82993,47.32475,13.92368-5.19953,19.93555-34.04343,18.86751-43.06454l-1.13294-9.56923c2.36789.79419,4.60256,3.61361,5.54766,5.51874,3.11703,12.91487-.76288,24.96339-6.40427,36.49147-2.9647,6.05832-9.00534,19.82322-17.90669,18.25477-2.80078-.49351-4.56118-5.38469-5.28233-8.01723Z"/>
  <path class="cls-1" d="M1621.78605,1487.56111c-3.27909,6.95606-11.78345,7.0343-17.5543,9.62233-2.85706,3.27751-2.77499,13.23218.07754,16.84275,4.48926,5.68226,12.257,2.06225,18.90161,2.17976-2.98538,2.85056-7.04564,4.75915-10.71571,5.91593-6.72644,2.12013-14.52532-1.27673-15.48662-8.79019-1.72636-13.49307,1.83231-26.89888,5.3094-39.95241-1.64764,6.1855.51344-9.45256,2.58956-10.0749,1.93386-.57969,3.20993,2.21168,4.55487,2.2111l23.34751-.01016c-3.20933,8.60655-17.47263,2.32442-21.9236,9.74228-2.71693,4.52797-3.72591,9.40976-5.14963,15.35694l16.04938-3.04343Z"/>
  <path class="cls-1" d="M1580.92342,1521.49748c.0277.80812-1.94922,2.56294-2.66025,2.9232-.82967.42037-2.48752-2.23318-2.45721-3.33104l1.19822-43.40411c.11972-4.33655,1.0417-8.59217-1.76074-12.71612,3.48802-2.3356,5.83033.23057,8.20693,1.40649,2.89576,1.4328,3.52183,5.36575,2.76664,8.7435-3.43479,15.36274-5.82736,30.80774-5.29358,46.37808Z"/>
  <path class="cls-1" d="M1556.18495,1391.04935c-.22987-4.93287-.18219-7.65831-.06045-11.75123.24223-8.14392-5.47531-30.34643,7.73964-35.31682-2.50177-2.76499-2.28258-5.10747-1.66089-8.0858l5.99104-28.70133c-.63853-.4422-1.83817-.4502-2.16031-.52005-.38908-.08436-.49367-.65933-.41725-1.19534.10057-.70543,1.84898-.21491,2.19032-.91408,4.08767-8.3728,2.84673-19.32184,4.37041-28.36427,1.1451-3.04037,10.64335-2.69227,11.33308.42326l2.84812,12.8651c3.14268,14.19563,5.35276,24.9699,8.31806,39.4925.86058,4.2147,6.60652,9.26861,4.09785,13.62607-2.46871,4.28806-5.51428,8.61002-2.77037,13.7108,1.13205-3.60833,1.92526-.71006,2.41812-1.01756,1.01127-.63093-.1646-3.88836,1.80798-3.82079-.49505,10.97326,4.863,11.87314,7.24718,28.14539,7.53449-1.0626,7.48757-22.0261,9.53495-26.20584,9.24475-18.87316,3.87207-26.23672,10.24916-45.84763,1.74061-5.35273,1.13269-8.34826,1.68061-13.61804.9072-8.72526,7.28767-19.12643-.31701-27.53294.08663-.01378,7.7383-7.46623,11.67376-5.78587,1.48559.63432,3.7698,3.08142,2.82248,5.26449-1.62369,3.74173.72974,7.45875-.03774,10.99308-.84729,3.90188-4.16165,7.64577-3.2083,12.4007,2.06562,10.30254-2.83245,19.4584-4.18958,28.83491-1.17332,8.10651-2.61622,15.04439-5.12704,22.76059-7.81901,24.02916-8.55868,42.17425-20.08848,63.12813-1.47537,2.68129-1.63376,2.6733-5.4692,2.76477-3.53118.08421-8.94418-7.82575-10.32721-14.58307-1.2524-6.11905-7.8762-12.51901-4.67323-18.2822-13.7931-27.62905,2.49219-3.77213-7.07337-24.12952l.75564-8.66336c.0505-.57897-2.46737-.11136-2.54417-.78527-.20181-1.7708,3.87504-3.53809,2.12463-7.33385-.7546-1.63635-1.70237-2.31836-4.43909-1.9956,1.80445-3.8182,1.98354-6.83285.90639-10.29321-4.99246,3.60296-2.16199,9.3497-2.8963,13.7724-1.17042,7.04933-3.30548,13.03742-2.10845,20.64501,3.28026,20.84731-11.57505,19.5234-6.94792,40.22019,1.17627,5.26134-3.50657,13.90057-9.0831,11.56485-5.44632-2.28118-2.31265-11.63437-2.50997-15.86857ZM1568.92964,1349.79194c2.31324-1.98541,3.68184-4.68407,2.76349-7.73896-2.57056,2.34872-1.28763,5.05133-2.76349,7.73896ZM1560.31902,1353.92948c.83793.07323.80194-2.40997,1.03117-3.51648.36305-1.7524-1.32901-1.2708-2.13478-.2839-.48169.58997-2.04546,1.80298-1.97722,2.81974.05739.85507,1.80109.8688,3.08083.98064ZM1593.36263,1379.2601l-1.93726.93007,2.42552,5.04685,1.93726-.93007-2.42552-5.04685Z"/>
  <path class="cls-1" d="M1159.17054,1365.92806c-.0722,1.21984-1.85963,1.47441-2.16023,2.04391-.34137.64675-.45714,2.23865.3406,2.51792,1.03933-1.92486,2.883-3.14758,4.54273-3.92468,1.81849-.85143,2.58741,2.78228,3.4053,4.84654,3.29188-2.67626,2.57351-7.39821,3.32566-11.09689.35767-1.61158,2.99383-2.4853,2.86752-5.10419-.09124-1.89178-1.99474-3.35986-1.81985-5.49608,5.51926,1.89582,1.99712,7.11093,2.41381,10.86307.18327,1.65023,1.97173,2.31109,1.49516,3.39788-.59048,1.34656-.49946,4.1743-1.76189,3.54032-1.96617-1.85527-2.88552-1.02455-2.45995.20759.52466,1.51903-.0435,3.07348.59966,3.57454.90167.70246,2.12039-.13061,3.88917-.5058.23732,7.11337,4.76493,13.17469,7.96255,19.03998,1.95639,3.58853,2.49058,5.6562,6.91237,6.40141,21.03676,3.54532,20.26703-14.34404,29.49004-2.12117,2.72746,3.61459-1.21626,6.80904-2.88159,9.95799-3.61234,6.83053-11.14121,3.21308-16.96144,4.29549-17.34153,3.22506-42.59026-11.64077-40.14857-24.50123l1.4526-7.65087c.41611-2.19167-2.49172-4.72664-5.08442-5.65193-.39439-.08364-1.03052,1.63536-1.26669,1.93154-.26133.32775-.7479.07491-.87424-.29707-.18654-.54924-.74799-1.48336-.00129-2.07243,7.41267-5.84786.73654-10.88945,4.92849-18.25211-2.59999-1.33174-3.46998.34876-3.9628,1.69563-.54034,1.47674.52435,2.34141,1.90335,4.07137-2.69173.27007-3.34813-2.03482-3.79944-3.43784-.75126-2.33549,2.20125-4.1504,2.30589-6.16821,1.23566-23.82867,3.93346-47.40611,9.80481-70.4236l-7.07434-6.03988c-1.80947-1.54488,3.6927-3.18782,5.72351-3.35197l55.82214-4.51189c9.08258-.73411,16.87949,2.53154,20.35471,10.30973-.94548,2.46346-4.97517,1.83254-6.5041,2.68008-2.3423,1.29842-7.51455,5.91976-9.59047,2.05681-1.85412-3.45023-9.31568-2.06973-11.38969.62651-1.47464,1.91705-1.01246,4.00672-3.51887,4.37512-2.02071.29701-2.81393-.24776-4.02379-2.4121-.91911-1.64422.85852-2.6379,1.37607-6.03333-8.16058.64665-7.74762,4.75199-8.53781,4.85012-1.25908.15635-1.33536-1.87487-2.32644-2.27597-2.85747-1.15645-6.70026-.23899-9.45546-1.1807-.38045,1.3627-.55971,2.7935-.64598,3.56912-.10335.92916-3.43239.13873-3.65145.95756-1.54534,5.77637-1.26595,11.93752-4.31814,17.38446-3.29545,5.88108.55461,12.30764-5.48824,17.91957-.38304.35573-.30284,1.67039.10204,2.38567.3133.55349,2.49842-.99099,2.6149.3366.15006,1.71025-3.48107,4.46697-1.58158,6.20401,11.5848-.73832,23.01377-1.0825,34.07489-3.10533,2.66168-.48676,2.12853-3.3864,4.97329-.85989,1.80679,1.60466-.17717,4.14384,2.9423,4.91072-1.52542,1.8017-2.80537,3.13392-3.61225,5.83814-13.14951,2.72036-25.88634,4.53148-38.65152,2.27037.09149,3.75369-.0154,6.72382-.62513,9.66353-1.26902.57485-2.88466.84476-3.16359,1.95086-.31506,1.24934.8647,4.58088.1971,5.48058-2.58595,3.485-4.35537,6.74696-3.98923,11.23007-1.61907.69858-3.09321-.24633-3.377-1.19427-.307-1.02548.55765-3.82038-1.20292-4.69136-2.69427,1.76226.26821,5.96049.08972,8.97598ZM1208.22454,1276.8196c1.74577-.15353,2.17027-2.09782,2.52196-3.04464.33086-.89074.0968-3.59969-1.16889-2.80512-1.68919,1.06044-3.32441,2.22371-3.81677,3.13323-.488.90146,1.45953,2.80484,2.4637,2.71653ZM1167.30287,1396.72543c-.66792-4.41807-3.4977-7.59803-6.00158-10.66163.42368,4.26209,3.01703,7.74756,6.00158,10.66163ZM1169.40377,1397.0416c0-.2877-.23335-.52093-.52121-.52093s-.52121.23323-.52121.52093.23335.52093.52121.52093.52121-.23323.52121-.52093Z"/>
  <circle class="cls-1" cx="1168.88256" cy="1397.0416" r=".52107"/>
  <path class="cls-1" d="M1518.93177,1311.34839c-1.73339,5.88984-.15316,10.83329.7552,17.1854,1.88872-4.74157,3.71318-9.48425,3.7617-15.09379,3.82944,4.44418.91585,10.5406,1.97507,15.42979,3.02,13.93979-2.02772,13.40047-2.90508,24.037l-1.80123,21.83691c-.39597,4.80048-2.9139,8.07218-1.54625,13.29711.31778,1.21404-.43672,3.40599-.97207,4.27282-.55596.9002-4.0151-.19447-4.73337.68056-1.12355,1.36877-7.85775,17.33672-8.21328,8.2695-8.20367,5.57292-17.11942,2.85179-25.6454,1.25781-5.66364-1.05885-11.6923-.78077-15.37721-6.11033-6.56869-9.50044-9.45483-20.78747-10.96144-32.04601-.58694-4.38605-2.42229-8.74283.33349-12.95961,2.29986-3.51913-1.78124-6.50922-1.614-8.76587,1.73428-23.40058,11.17983-43.78876,12.70545-65.25815,21.23397-8.21471,6.09253,30.27097,4.28131,44.10168-2.83543,21.65166-6.74725,31.18148.02697,52.88767,2.11505,6.77713,3.82606,13.96563,9.43139,18.62797,3.54936,2.95225,11.85235,2.36603,14.04742-1.64907l4.70769-8.61103,4.41039-13.92592c3.95842-12.49883,8.60712-24.43843,6.26586-38.59184-.59849-3.61798,2.41349-4.52712,2.91228-6.82398,2.26634-10.43619,3.44638-20.94708,4.3388-31.59426.32526-3.88064-1.50843-8.59418,3.77991-11.29275,1.48265,18.37108,9.01998,21.04253,1.06794,37.84722l-1.03155-7.00883ZM1506.55078,1365.93677c1.70391.15559,2.38993-4.76604.39062-4.64595-1.51148.09079-1.63803,4.53205-.39062,4.64595Z"/>
  <path class="cls-1" d="M1297.48233,1411.74525c-.94823.92182-2.01901,1.17116-2.40983,1.91764-.58079,1.10936-1.92518.31647-1.99799-.53947-.06124-.71996.93703-2.73857.47857-3.20928-2.55689-2.6252-5.65016,1.74339-8.38133,1.63138-5.38138-.2207-10.72081-2.22516-15.84142-3.23864-2.50084-.49497-1.53246-4.85671-2.85292-5.53874-4.25895-2.19978-6.53953-7.15925-4.5825-11.47074,7.17465,1.99427-2.35519-.39208,4.03106-19.20215,1.54507-4.55085-.82589-9.99815,1.85332-14.67131-2.99682-.09888-.41173,2.14684-2.43173,2.50682-.22414-10.70072,2.23774-31.83349,2.12721-40.45401-.06315-4.92563-.77727-7.56653.52513-12.88157-.42753,1.74473,2.92532-47.35706,3.68407-54.52958.34177-3.23079.06956-6.19698-1.32923-9.18163,4.296-3.38965,8.85783-2.30946,12.56502.51393,4.08796,3.11338,3.90674,7.5156,3.20233,12.82303-2.90956,21.92237-5.1449,43.09897-5.74984,64.95831-3.77392-1.61931-3.08179.55008-3.70627,2.17858-1.20535,3.14326,2.16894,3.37943,3.24643,4.52569.92619,5.98444-.29524,13.18173,1.25608,19.41359,6.46162,25.95717-6.58614,29.2974.79173,47.93808,19.3763-12.44826,40.10563-10.03466,56.02531-19.90267-.49944,8.62871,2.34707,16.35231-7.78831,19.7992-.48855.16615-.58258,2.09906-.93102,2.30292-.78925.46177-1.6718.2216-1.6429-.72444.02421-.7925-.31732-2.11996-1.08348-3.48705-4.47278,3.43371-8.86102,5.87749-14.55663,5.19957-.9022-.10738-2.37999,2.54469-3.27647,2.54345-1.32179-.00183-2.83502-.59783-4.26992-1.69286-3.05886,3.79267-3.40382,9.02022-6.95445,12.47196ZM1278.90395,1313.44446c.89955-3.03332,1.64603-5.81385.31731-9.29593-1.04977,2.99282-2.6896,6.22813-.31731,9.29593ZM1267.61533,1311.69337c-.72258,1.84384-.82649,2.80767-.0592,3.38514.67006-1.06394.67289-2.27241.0592-3.38514Z"/>
  <path class="cls-1" d="M1267.61533,1311.69337c.61368,1.11273.61085,2.32119-.0592,3.38514-.76729-.57747-.66337-1.5413.0592-3.38514Z"/>
  <g>
    <path class="cls-1" d="M1728.06673,1386.05667c.63184,5.49531-2.82176,10.13441-3.05273,15.23708,2.78922-.05406,2.82379-1.52572,3.68136-1.69392-6.02642,14.65122-3.62373,12.73077-1.86938,18.16282-.117-.36226-3.16934,7.25546-2.57294,6.54914-.83758.99195-2.53927-1.50383-3.47929-1.35585-4.17984.65798-7.13191,1.00558-9.70849-1.32199-3.83422-3.46368-2.39155-7.4486-2.3496-11.62543.01687-1.67997-4.19161-3.22342-1.57294-6.46999.48471-.60094.31047-2.60745-.22765-3.17378-1.57235-1.65477-2.37661.22752-8.14374-.98545-1.41777-.29819-1.18257-3.79538-2.25319-4.74712-9.33799-2.14986-18.09631-6.17769-23.54652-14.33015-1.79802-2.68949-5.64158-2.24477-6.81416-3.71043-1.74312-2.17881-2.29548-4.92391-4.75743-6.54822-2.96086-1.95347-3.20598-7.48419-4.25527-11.00089,3.93564-1.8232,5.84505-6.42492,4.26797-10.55969-1.57178-4.12087.41389-5.80937.84454-9.35428.56263-4.63139-1.78794-9.32958,2.51902-13.27805,2.26392-2.07548,6.66825-19.16381,4.47227-22.66664,3.37319-.50169,4.5641-2.0601,6.10071-4.04009,1.53118-1.973,1.30797-2.81954-.57366-6.06237,4.47363.61774,4.03344-3.82581,5.614-4.75472,4.03356-2.37058,8.21346-4.19456,9.19773-9.32414,2.65647-1.80465,6.86209-3.59377,4.45055-5.04546-7.41756,3.07654,17.29983-11.22636,18.28437-10.91016,6.87231,2.20713,11.41961,8.4127,13.90539,15.35799-17.06589,10.97759-12.47833-2.8693-21.15812,9.35636-5.9729.65633-12.0153,1.35508-14.18625,7.30036,9.26423-.27817-4.62467.29062-7.05158,11.30147-.82675,3.75097-6.72153,6.24468-6.49594,11.20095-1.28405-3.02711.57147-4.69673.55844-7.48422-6.46254,3.10252-.93275,8.38415-2.34144,11.29677-1.86549,3.8571-7.10167,10.80941-3.94115,15.69362.83383,1.28859,3.54183,2.04614,4.65076,2.09963,1.6483.0795,1.14188-3.28774,3.77737-3.61736-1.76081,6.24175-4.36575,12.30792-3.65361,19.33173l1.46942,14.49295c.4156,4.09907,1.77485,6.27679,3.44163,8.44933,2.81857,3.67383,5.22783,1.44562,9.38477,3.27694,7.79144,3.43249,19.19588-4.75337,19.2067-13.52374l.02659-21.54608c.00148-1.20141-1.52261-2.29408-1.00439-3.42662.65596-1.43358,2.58547.03211,3.31662-.53113,1.62471-1.25159.8495-3.58263,3.12388-3.5663-.95746-.00687,9.99205,2.92284,9.09353,1.98079.83543.8759,1.91143,3.22915,3.2238,4.04105,2.39331,1.48064,5.22944,1.13063,5.74966,3.57859.75327,3.54465-1.84031,5.35615-2.67913,7.73405-3.37568,9.56945-3.02273,20.0328-4.85823,29.62103,1.75576,1.35603,1.57967-3.26792,2.80489-2.35499.46419.34587.7623.92686.66893,1.22818-.21326.68822-1.36013,1.09147-1.28805,1.71843ZM1683.05682,1306.29853c0-.2877-.23335-.52093-.52121-.52093s-.52121.23323-.52121.52093.23335.52093.52121.52093.52121-.23323.52121-.52093ZM1668.7457,1350.54013c1.19776-2.74872,1.14194-5.20847.39553-7.87894-1.56035,3.03618-.36582,5.29045-.39553,7.87894ZM1663.7532,1353.05957c1.95087-2.92293,1.65673-5.78926,1.03919-9.128-1.29992,2.87556-1.81948,5.74512-1.03919,9.128Z"/>
    <path class="cls-1" d="M1668.7457,1350.54013c.02971-2.58849-1.16482-4.84276.39553-7.87894.74641,2.67047.80223,5.13022-.39553,7.87894Z"/>
    <path class="cls-1" d="M1663.7532,1353.05957c-.78029-3.38288-.26074-6.25244,1.03919-9.128.61754,3.33874.91168,6.20507-1.03919,9.128Z"/>
    <circle class="cls-1" cx="1682.53561" cy="1306.29853" r=".52107"/>
  </g>
  <path class="cls-1" d="M1806.59453,1362.90839c-.51855,29.57515,7.91236,18.24398-8.57759,43.19899-9.36132-1.08811-12.41006,16.60388-20.04118,7.58725.46532,4.91906-2.83408,3.51487-4.40915,4.79677-6.10598,4.96946-13.75517,6.47989-20.91229,5.70786l13.6212-7.70277c8.95639-5.06483,33.18146-30.29524,16.72968-59.15742-5.74254-10.07443-11.63644-18.57129-18.41031-27.61412-4.90644-6.54989-5.99668-14.94828-8.38098-23.52914-2.79694-10.06591,5.05851-20.59071,11.02429-29.14285,4.68637-6.71807,8.38607-15.36956,17.08063-16.65424,8.41193-1.24291,24.15763,6.7324,24.07327,13.3655-.02422,1.90393-3.11698,1.66195-4.30316,3.02421-2.24995,2.58394-2.3091-2.58601-4.37214-2.60189-5.19991-.04005-6.44233,7.54847-9.18601,9.32326-15.11514,9.77741-18.47458,34.59311-13.46471,40.61267l18.61639,22.36833c3.2268,3.87713,7.21539,6.90996,4.9577,13.20872l3.22424-.07825c.9702-.02355,1.22777.80827.82944,1.81339-.21766.54923-.97163,1.16777-1.69506,1.84464-.78213.73177-.57933,1.643-.12661,2.25512.26783.36213.67226,1.15842,1.39095.40368.56263-.59085-.9409-2.76757,2.33139-3.02969ZM1791.47896,1351.69726c.83496-3.08683,1.60807-3.99885.2179-5.24151-.65664-.58697-1.50795-2.07589-2.6207-1.29832.65765,1.95782-1.62675,3.08947-.44406,4.22398.85907.82407,1.70516,3.00653,2.84686,2.31584ZM1781.47697,1349.75042c-.51563,2.04884.8291,3.20806,1.97638,4.21466-.32722-1.56258-1.26681-2.73875-1.97638-4.21466ZM1789.03699,1356.24017c-.43942-2.81314-.91025-5.18732-3.42738-6.55984.06868,2.84998,1.6624,5.03652,3.42738,6.55984ZM1793.76168,1365.88637c.35842-3.23264-.31229-8.07559-4.54038-7.81994,2.37709,2.36968,2.8608,4.70031,4.54038,7.81994ZM1805.66313,1383.73155l-3.89086,6.58503,1.70674,1.00739,3.89086-6.58503-1.70674-1.00739Z"/>
  <path class="cls-1" d="M1789.03699,1356.24017c-1.76498-1.52331-3.3587-3.70986-3.42738-6.55984,2.51713,1.37252,2.98796,3.7467,3.42738,6.55984Z"/>
  <path class="cls-1" d="M1781.47697,1349.75042c.70957,1.4759,1.64917,2.65208,1.97638,4.21466-1.14728-1.0066-2.49201-2.16582-1.97638-4.21466Z"/>
  <g>
    <path class="cls-1" d="M888.71337,1421.3672c-4.38859,1.52637-10.15977-.432-14.7823,2.2609-2.15665,1.25638-9.1163,2.83984-8.46637-.82219.77899-4.38924-6.09293-1.61304-8.6572-.65553-1.91032.04634-2.9458-3.79588-3.63854-5.13545-1.25634-2.42941,2.37353-2.96286,3.51939-4.51561,2.17554-2.94807,3.47561.44221,5.81997,1.28696,10.35607-5.60332,17.80786-11.51711,29.00887-8.4414,2.26652.62237,4.03064-3.30241,5.59019-4.37852,3.37972-2.33206,9.41012-2.06183,11.43349-5.99591,8.67042-16.858,4.03243-27.15199-7.79142-40.18192-12.82648-14.13483-22.72604-30.31962-23.31669-49.87106-.49031-16.22999,14.68977-33.41147,28.19814-38.85309,5.23906.06887,19.85601,9.90001,17.98222,15.93679-.54878,1.76801-2.95071,2.84478-5.38687,2.62772-11.75433-1.04731-17.97956,14.05514-21.97429,17.04983-8.20111,6.14805-6.70295,13.83426-3.50059,21.64698,11.45754,27.95272,32.17812,35.7561,33.62005,49.89152l.83354,8.17133c.34468,3.3789-.71546,5.97723,4.45036,8.40452-16.74175,8.06413-2.11304,25.70966-19.86997,26.60221-8.14229.40927-15.24398,2.24932-23.07198,4.97192Z"/>
    <g>
      <path class="cls-1" d="M990.93238,1399.46491c5.42793,2.69171,10.6434-.09982,15.98793-.23546,5.76062-.1462,10.12706-2.70781,12.54427-8.15283,2.51917-.8935,6.52342,1.59557,8.18318,3.24458,1.82399,1.81219,3.92423,6.85649.94684,9.21035-5.42441,4.28842-14.9591,7.8912-22.16912,6.86899-6.82278-.96731-14.80965-.13869-19.56522-2.49993-12.28538-6.09995-15.49919-15.75626-17.42193-27.23108-2.03887-12.16793-5.73514-23.36282-3.67926-35.89695.97748-5.9594-2.13427-10.07114-7.08685-13.69132,1.99556-2.14397,4.18639-1.27791,7.17862-.72406,6.15614-18.13999,1.84239-32.76673,7.55632-50.40387-6.27236-1.86187-12.24485-3.54668-17.32118-7.42235,3.891-2.46557,7.70331-1.05757,11.38174-2.44563,11.11738-4.19518,22.45229-7.09792,34.3764-7.84434l4.10705,5.98289c6.90018-1.25964,13.70658-.32509,20.66277,1.24704,1.51084-4.02796-2.43834-2.93049-4.07026-5.72973,2.01735-2.41638,5.05346-1.92936,7.18586-1.78041,3.91784.27366,3.96997,2.64317,4.90008,5.79053.91555-.15194,2.46948-.76003,2.9633-.54971.46134.19648.44982,1.74421-.1888,1.86637-1.13131.2164-2.43379-.85483-3.01745-.49104-7.25685,4.52312,13.64201,3.26484,9.13215,4.74582-4.90013,1.3783-1.76646,5.34614-4.3554,4.6776-2.52664-.65245-4.92484.57399-3.29952-3.49774-3.47914.62599-6.2244,1.40348-9.61443,3.86452-6.03636-3.75362-14.64517-3.66659-21.21105-.64053-1.87828.86566-3.80914,5.24478-6.67807,3.25407-.56887-.39473-.42812-2.62637-1.14171-3.02296,3.24061,1.80106-17.4924-1.18785-19.23719,2.00534.97462,6.58934-1.08855,12.59832-1.53798,18.81688-.73048,10.10723.06657,20.0469-1.86309,30.8367,13.06381,1.30157,24.79307-.60315,37.39304-3.40095,2.41953-.53725,7.8603.15495,6.9622,3.82078-.66097,2.69795-5.5137,6.10384-8.35948,6.44325l-36.60261,4.36546c1.87239,32.318,2.5114,30.49752,16.95881,58.61971ZM1003.16093,1277.2939c0-.2877-.23335-.52093-.52121-.52093s-.52121.23323-.52121.52093.23335.52093.52121.52093.52121-.23323.52121-.52093Z"/>
      <path class="cls-1" d="M1015.65643,1265.55069c-.56022,1.21213-8.30901-.92035-6.5113-1.93697.72539-.41022,4.88442-1.27038,5.95975-.52613.56869.3936,1.01671,1.45665.55155,2.46309Z"/>
      <circle class="cls-1" cx="1002.63972" cy="1277.2939" r=".52107"/>
    </g>
  </g>
  <circle class="cls-1" cx="1345.48966" cy="1501.04393" r=".40926"/>
  <g>
    <path class="cls-1" d="M1663.7746,1479.10305c-.56329-2.40668-3.53513-2.62823-4.08766-4.12554-.93211-2.52595,3.46652-4.39669,5.6967-4.0338,7.2347,1.17719,7.05995,19.32393,9.03847,24.3136l5.20674-9.6836c.87156-1.62094,4.37026-.9435,5.62854-.45044,4.17642,1.63658,1.73585,11.96103,4.29087,14.35602,7.77046-10.13526,8.9726-27.70282,16.14834-37.29063,6.39799,2.10555-4.45453,17.01207-4.96568,28.26787-.46518,10.24355-4.93116,19.63476-7.86545,29.26918-2.66876,1.33491-6.52365,1.62592-7.69255-.43806-1.41507-2.49866-3.33231-4.70766-3.66626-8.1093l-6.91242,13.23011c-3.01601-2.37949-5.30041-7.72047-7.72661-10.72896-.50721-11.45728-.37327-22.95607-3.09304-34.57644Z"/>
    <path class="cls-1" d="M1718.12246,1496.8807c2.92297,1.83169-7.17529,13.97143-1.25231,15.70702,6.0258,1.76571,12.80356,1.12348,19.49718.99775,2.23859-.04205,3.44324,5.57248,1.68171,6.78186-5.37005,1.43597-11.56383,1.8125-17.23002,2.2335-6.36034.47257-11.05129-4.29953-11.76066-10.1923-2.5953-21.55922,7.54154-24.0773,6.208-37.16718-.35446-3.47935-1.42493-5.51012-.46895-9.96126,3.70642,1.77553,29.34493-6.19273,26.90967,3.9054-.66922,2.77499-14.51554.62551-18.34499,5.80174-2.14889,2.90463-.09157,8.46436-3.08576,11.69236l16.79381-1.7994c1.52552.22254.86991,4.87306-.73373,5.44981l-18.21395,6.5507Z"/>
    <path class="cls-1" d="M1798.60415,1473.37503l-3.93781,35.6869c-.44727,4.05346-3.067,7.89837-7.64769,7.50975,1.69177-14.95068,3.32166-28.26784,3.06277-43.19001-9.77925,4.25297-18.23569-5.84848-17.81088-9.40521.17486-1.46404,1.55684-5.26718,3.32693-4.16387,14.60722,9.10476,16.88083-3.42149,37.57007,4.06874,1.50158,9.77596-13.70577,1.72144-14.56339,9.4937Z"/>
    <path class="cls-1" d="M1776.73757,1513.99442c.14277,3.2307-.73005,6.69099-2.24159,8.4741-2.36202,2.78639-5.91932,1.59133-9.13755,1.95901-4.03737.46127-7.75664,3.65562-11.2871.61738-2.6742-2.30136-5.08792-4.79156-5.52134-9.14586-1.52813-15.35243.42547-30.49723,5.51022-45.14134,1.28268-3.69413-.07898-5.62235-.9876-8.34616-1.16679-3.49771,3.92124-2.65926,5.8384-2.43212,2.7985.33157,3.74595,4.38221,2.95243,7.74439-3.69164,15.64163-7.49817,31.13921-7.15572,47.67499,5.77125.34156,19.59489,3.29272,22.02986-1.4044Z"/>
  </g>
  <path class="cls-1" d="M1193.07196,1508.29286c-.97507-2.16505-7.86282-.37371-8.45775,1.89897-2.17516,8.30936-1.41649,16.50604-5.06559,24.03706-.67843,1.40013-3.5708.65305-4.07655-.34718-.56118-1.10987-.86626-3.7768-.20707-5.13756,4.77552-9.85807,2.85923-20.20465,4.80518-29.26972,2.58472-12.0407,4.44445-23.88582,3.47429-35.91919-.06813-.84505-2.03238-1.74573-1.22929-2.65673,2.19009-2.48438,4.66066.1348,5.7769-1.59537.66758-1.03476.15244-2.05986.56231-3.32538,2.25154,2.65687,5.36183,1.14848,7.70091,2.75413.20121,13.94652-.74631,28.15454,3.01207,41.80844.60629,2.2026,5.7837.1703,7.10047,1.22649-1.07764,2.35448-7.27481,3.31495-6.2483,6.88378.73027,2.53889,7.36604,13.75679,3.13385,16.62086-.79619.5388-2.55848.16945-3.04433-.90934l-7.2371-16.06927ZM1190.80266,1494.36605c-.54997-2.56483,2.12158-5.85117-1.76719-7.67856-1.31574,1.58857-3.50422,14.50178-.24284,14.65064,1.97644.09021,4.34989.73118,4.40592-1.6839.03224-1.38966-1.94982-3.20787-2.39589-5.28818Z"/>
  <g>
    <path class="cls-1" d="M1013.46434,1501.17767c-3.50329,2.04235-2.28126,23.81804-8.26985,21.02254-3.70513-1.72957-.90847-6.92281-.56507-9.74096,1.50952-12.38801,1.84126-24.15295,5.84483-35.9502.84887-2.50136-1.73795-4.58757-1.49726-6.76225.34319-3.10082,8.96161-3.68516,10.59765-.97236l2.10076,29.86263,7.32689-34.05004c.69229-3.21724,4.52077-8.2691,7.50076-6.96516,3.06995,4.19496,1.01219,10.69678.02886,15.67719-1.86926,9.46757-8.7546,40.59482-5.3544,48.03487-2.43798,2.02261-3.97073,2.98611-5.55251,4.8375-13.55089-11.12782-3.67499-8.02125-12.16066-24.99376Z"/>
    <path class="cls-1" d="M1070.28326,1472.93732c-4.56042,13.39311-2.01456,50.47933-18.19381,49.95456-4.79731-.1556-5.88371-4.3126-7.32416-8.75098-4.7414-14.60944-.18435-28.98889,1.67102-44.19736.43267-3.54659,2.43644-2.65204,6.34386-1.06569,8.4794,3.44249-11.60842,24.57251-.57471,46.39926,14.07338-13.63126-2.0918-51.10592,18.07779-42.33979Z"/>
    <path class="cls-1" d="M1144.59423,1511.5675c-5.11835,5.27399-14.72998,12.82187-21.68264,12.5395-10.43057-.42362-8.99331-13.55245-8.05664-19.96206,1.99034-13.61982,3.0917-25.6957,3.95526-39.15167.14176-2.20888-2.69164-4.25605-1.21044-6.5159,1.05363-1.6075,3.48942-1.89552,5.69187-1.98042,11.71304-.45149-7.30138,51.86784-.82675,58.77425l22.12934-3.7037Z"/>
    <path class="cls-1" d="M1105.68543,1515.42576c-4.33697,3.98739-9.77443,7.67995-15.0964,10.72621-4.38319,2.50892-8.42702-2.24884-9.89106-6.73395-5.28186-16.18101-2.02335-33.64569,2.95309-49.90838,1.50975-4.93376,1.81891-9.47602-1.86816-13.84506,24.88925.98806-7.33036,38.32666,5.69829,62.86438l18.20424-3.10321Z"/>
  </g>
  <g>
    <path class="cls-1" d="M896.36573,1519.00742l-4.23845-36.15995-8.77257,23.99918c-6.13362-3.74021-4.92572-10.64625-7.03487-17.51997-3.32782,5.52919-1.96883,11.86445-3.31165,17.84236-1.50738,6.71049-3.8606,12.76424-4.03643,20.06053-6.34608-5.60474-3.49555-12.82072-2.26841-20.16341l5.22788-31.28149c.52086-3.11663.27966-6.02009-2.75917-7.23587,1.76999-1.84709,3.47866-2.6409,5.35554-2.72927,2.39818-.11291,3.58617,1.84913,4.28532,4.22038l4.51048,15.29788c3.1053-4.72796,2.65978-9.63494,4.36574-14.70198.79624-2.36499,6.39888-3.79216,8.05035-1.70995,6.98432,8.80596,1.47672,31.69311,6.46432,48.31205,1.2637,4.21072,4.54685,8.34455-.90196,12.09403-2.00692-3.41286-4.46385-6.29532-4.93613-10.32452Z"/>
    <path class="cls-1" d="M952.56739,1522.79783c-14.72663-10.77885-.06827-31.3781-1.41664-46.00923-2.24895-1.29317-3.99176.73949-5.87144.99285-2.97559.40109-5.22435-2.49085-5.99942-4.42261-1.20272-2.99762-1.49329-5.376.32194-9.02997,4.26341,5.91236,8.20649,2.57951,12.80405,2.29453,10.10929-.62661,18.68145-4.91924,29.13719-5.03082,1.62606,7.68227-16.0651,8.15391-22.30471,13.60292,2.31149,5.72099-16.54715,47.94468-1.76625,36.03376.77578,4.10155-1.18346,8.46531-4.90472,11.56856Z"/>
    <path class="cls-1" d="M925.0784,1493.19172c-4.16995,24.49206,5.98295,25.97396-3.26583,34.20985-4.88754-15.78253-3.73869-31.40034-3.78398-47.20475-.01393-4.86251.4176-8.89072-3.8157-12.86997,3.29504-1.52306,7.15218-2.22931,9.22647-.28709,5.10339,4.77845,2.98767,18.23084,1.63904,26.15197Z"/>
  </g>
</svg>